# xmcd
#
# Track frame offsets:
#	150
#	33646
#	68844
#
# Disc length: 1440 seconds
# Revision: 3
# Processed by: cddbd v1.5.2PL0 Copyright (c) Steve Scherf et al.
# Submitted via: dBpowerAMP V12.0
#
DISCID=23059e03
DTITLE=Lester Levenson - Private Lessons with Lester CD 01
DYEAR=1986
DGENRE=Home Study
TTITLE0=Letting Go of Resisting Freedom
TTITLE1=Letting Go
TTITLE2=Mind Mechanism
EXTD=
EXTT0=
EXTT1=
EXTT2=
PLAYORDER=
